<?xml version="1.0" encoding="UTF-8" standalone="no"?>
<!DOCTYPE svg PUBLIC "-//W3C//DTD SVG 1.1//EN"
 "http://www.w3.org/Graphics/SVG/1.1/DTD/svg11.dtd">
<!-- Generated by graphviz version 2.43.0 (0)
 -->
<!-- Title: %3 Pages: 1 -->
<svg width="446pt" height="165pt"
 viewBox="0.00 0.00 446.00 164.74" xmlns="http://www.w3.org/2000/svg" xmlns:xlink="http://www.w3.org/1999/xlink">
<g id="graph0" class="graph" transform="scale(1 1) rotate(0) translate(36 128.74)">
<title>%3</title>
<polygon fill="dimgray" stroke="transparent" points="-36,36 -36,-128.74 410,-128.74 410,36 -36,36"/>
<text text-anchor="middle" x="187" y="-77.54" font-family="Helvetica,sans-Serif" font-size="14.00">Sweep&#39;s Plan &amp; Progress</text>
<!-- start -->
<g id="node1" class="node">
<title>start</title>
</g>
<!-- c8d4ff0a&#45;38c8&#45;4c84&#45;b0a8&#45;7f747e0946cd -->
<g id="node3" class="node">
<title>c8d4ff0a&#45;38c8&#45;4c84&#45;b0a8&#45;7f747e0946cd</title>
<ellipse fill="#0ee832" stroke="black" cx="109.5" cy="-26.87" rx="56.64" ry="26.74"/>
<text text-anchor="middle" x="109.5" y="-30.67" font-family="Helvetica,sans-Serif" font-size="14.00">✓ Create</text>
<text text-anchor="middle" x="109.5" y="-15.67" font-family="Helvetica,sans-Serif" font-size="14.00">ideas.md</text>
</g>
<!-- start&#45;&gt;c8d4ff0a&#45;38c8&#45;4c84&#45;b0a8&#45;7f747e0946cd -->
<g id="edge2" class="edge">
<title>start&#45;&gt;c8d4ff0a&#45;38c8&#45;4c84&#45;b0a8&#45;7f747e0946cd</title>
<path fill="none" stroke="black" d="M1.2,-26.87C4.87,-26.87 22.63,-26.87 42.74,-26.87"/>
<polygon fill="black" stroke="black" points="42.75,-30.37 52.75,-26.87 42.75,-23.37 42.75,-30.37"/>
<text text-anchor="middle" x="26.97" y="-33.67" font-family="Helvetica,sans-Serif" font-size="14.00">Start</text>
</g>
<!-- end -->
<g id="node2" class="node">
<title>end</title>
</g>
<!-- d7a5a76f&#45;2f85&#45;4606&#45;b046&#45;c41730ea7522 -->
<g id="node4" class="node">
<title>d7a5a76f&#45;2f85&#45;4606&#45;b046&#45;c41730ea7522</title>
<ellipse fill="#0ee832" stroke="black" cx="258.5" cy="-26.87" rx="56.64" ry="26.74"/>
<text text-anchor="middle" x="258.5" y="-30.67" font-family="Helvetica,sans-Serif" font-size="14.00">✓ Modify</text>
<text text-anchor="middle" x="258.5" y="-15.67" font-family="Helvetica,sans-Serif" font-size="14.00">ideas.md</text>
</g>
<!-- c8d4ff0a&#45;38c8&#45;4c84&#45;b0a8&#45;7f747e0946cd&#45;&gt;d7a5a76f&#45;2f85&#45;4606&#45;b046&#45;c41730ea7522 -->
<g id="edge1" class="edge">
<title>c8d4ff0a&#45;38c8&#45;4c84&#45;b0a8&#45;7f747e0946cd&#45;&gt;d7a5a76f&#45;2f85&#45;4606&#45;b046&#45;c41730ea7522</title>
<path fill="none" stroke="black" d="M166.25,-26.87C174.8,-26.87 183.34,-26.87 191.89,-26.87"/>
<polygon fill="black" stroke="black" points="191.92,-30.37 201.92,-26.87 191.92,-23.37 191.92,-30.37"/>
</g>
<!-- d7a5a76f&#45;2f85&#45;4606&#45;b046&#45;c41730ea7522&#45;&gt;end -->
<g id="edge3" class="edge">
<title>d7a5a76f&#45;2f85&#45;4606&#45;b046&#45;c41730ea7522&#45;&gt;end</title>
<path fill="none" stroke="black" d="M315.33,-26.87C333.38,-26.87 351.52,-26.87 362.63,-26.87"/>
<polygon fill="black" stroke="black" points="362.75,-30.37 372.75,-26.87 362.75,-23.37 362.75,-30.37"/>
<text text-anchor="middle" x="344.03" y="-33.67" font-family="Helvetica,sans-Serif" font-size="14.00">Finish</text>
</g>
</g>
</svg>
