<?xml version="1.0" encoding="UTF-8" standalone="no"?>
<!DOCTYPE svg PUBLIC "-//W3C//DTD SVG 1.1//EN"
 "http://www.w3.org/Graphics/SVG/1.1/DTD/svg11.dtd">
<!-- Generated by graphviz version 2.43.0 (0)
 -->
<!-- Title: %3 Pages: 1 -->
<svg width="686pt" height="238pt"
 viewBox="0.00 0.00 685.50 237.74" xmlns="http://www.w3.org/2000/svg" xmlns:xlink="http://www.w3.org/1999/xlink">
<g id="graph0" class="graph" transform="scale(1 1) rotate(0) translate(36 201.74)">
<title>%3</title>
<polygon fill="dimgray" stroke="transparent" points="-36,36 -36,-201.74 649.5,-201.74 649.5,36 -36,36"/>
<text text-anchor="middle" x="306.75" y="-150.54" font-family="Helvetica,sans-Serif" font-size="14.00">Sweep&#39;s Plan &amp; Progress</text>
<!-- start -->
<g id="node1" class="node">
<title>start</title>
</g>
<!-- b705e390&#45;ea67&#45;4060&#45;994e&#45;9b28960bd5ab -->
<g id="node3" class="node">
<title>b705e390&#45;ea67&#45;4060&#45;994e&#45;9b28960bd5ab</title>
<ellipse fill="#0ee832" stroke="black" cx="227.5" cy="-99.87" rx="90.52" ry="26.74"/>
<text text-anchor="middle" x="227.5" y="-103.67" font-family="Helvetica,sans-Serif" font-size="14.00">✓ Create</text>
<text text-anchor="middle" x="227.5" y="-88.67" font-family="Helvetica,sans-Serif" font-size="14.00">project_plan.md</text>
</g>
<!-- start&#45;&gt;b705e390&#45;ea67&#45;4060&#45;994e&#45;9b28960bd5ab -->
<g id="edge4" class="edge">
<title>start&#45;&gt;b705e390&#45;ea67&#45;4060&#45;994e&#45;9b28960bd5ab</title>
<path fill="none" stroke="black" d="M85.14,-99.87C88.56,-99.87 105.42,-99.87 126.41,-99.87"/>
<polygon fill="black" stroke="black" points="126.65,-103.37 136.65,-99.87 126.65,-96.37 126.65,-103.37"/>
<text text-anchor="middle" x="111" y="-106.67" font-family="Helvetica,sans-Serif" font-size="14.00">Start</text>
</g>
<!-- end -->
<g id="node2" class="node">
<title>end</title>
</g>
<!-- 3dc9dd1a&#45;48a9&#45;4e2e&#45;b153&#45;1f263451a410 -->
<g id="node4" class="node">
<title>3dc9dd1a&#45;48a9&#45;4e2e&#45;b153&#45;1f263451a410</title>
<ellipse fill="white" stroke="black" cx="444.5" cy="-99.87" rx="56.64" ry="26.74"/>
<text text-anchor="middle" x="444.5" y="-103.67" font-family="Helvetica,sans-Serif" font-size="14.00">▶ Modify</text>
<text text-anchor="middle" x="444.5" y="-88.67" font-family="Helvetica,sans-Serif" font-size="14.00">ideas.md</text>
</g>
<!-- b705e390&#45;ea67&#45;4060&#45;994e&#45;9b28960bd5ab&#45;&gt;3dc9dd1a&#45;48a9&#45;4e2e&#45;b153&#45;1f263451a410 -->
<g id="edge2" class="edge">
<title>b705e390&#45;ea67&#45;4060&#45;994e&#45;9b28960bd5ab&#45;&gt;3dc9dd1a&#45;48a9&#45;4e2e&#45;b153&#45;1f263451a410</title>
<path fill="none" stroke="black" d="M318.2,-99.87C338.04,-99.87 357.87,-99.87 377.71,-99.87"/>
<polygon fill="black" stroke="black" points="377.76,-103.37 387.76,-99.87 377.76,-96.37 377.76,-103.37"/>
</g>
<!-- c1d4b74f&#45;0f37&#45;40f3&#45;8682&#45;859d4ce11adc -->
<g id="node5" class="node">
<title>c1d4b74f&#45;0f37&#45;40f3&#45;8682&#45;859d4ce11adc</title>
<polygon fill="yellow" stroke="black" points="323,-36 0,-36 0,0 323,0 323,-36"/>
<text text-anchor="middle" x="161.5" y="-14.3" font-family="Helvetica,sans-Serif" font-size="14.00">⋯ Run GitHub Actions for `project_plan.md`</text>
</g>
<!-- b705e390&#45;ea67&#45;4060&#45;994e&#45;9b28960bd5ab&#45;&gt;c1d4b74f&#45;0f37&#45;40f3&#45;8682&#45;859d4ce11adc -->
<g id="edge1" class="edge">
<title>b705e390&#45;ea67&#45;4060&#45;994e&#45;9b28960bd5ab&#45;&gt;c1d4b74f&#45;0f37&#45;40f3&#45;8682&#45;859d4ce11adc</title>
<path fill="none" stroke="black" stroke-dasharray="5,2" d="M206.62,-73.6C198.79,-64.13 189.9,-53.37 182.1,-43.93"/>
<polygon fill="black" stroke="black" points="184.65,-41.52 175.58,-36.04 179.25,-45.97 184.65,-41.52"/>
</g>
<!-- 3dc9dd1a&#45;48a9&#45;4e2e&#45;b153&#45;1f263451a410&#45;&gt;end -->
<g id="edge5" class="edge">
<title>3dc9dd1a&#45;48a9&#45;4e2e&#45;b153&#45;1f263451a410&#45;&gt;end</title>
<path fill="none" stroke="black" d="M501.33,-99.87C519.38,-99.87 537.52,-99.87 548.63,-99.87"/>
<polygon fill="black" stroke="black" points="548.75,-103.37 558.75,-99.87 548.75,-96.37 548.75,-103.37"/>
<text text-anchor="middle" x="530.03" y="-106.67" font-family="Helvetica,sans-Serif" font-size="14.00">Finish</text>
</g>
<!-- cd4b9acf&#45;3aac&#45;4892&#45;84fa&#45;8f4017dd6962 -->
<g id="node6" class="node">
<title>cd4b9acf&#45;3aac&#45;4892&#45;84fa&#45;8f4017dd6962</title>
<polygon fill="white" stroke="black" points="613.5,-36 341.5,-36 341.5,0 613.5,0 613.5,-36"/>
<text text-anchor="middle" x="477.5" y="-14.3" font-family="Helvetica,sans-Serif" font-size="14.00">▶ Run GitHub Actions for `ideas.md`</text>
</g>
<!-- 3dc9dd1a&#45;48a9&#45;4e2e&#45;b153&#45;1f263451a410&#45;&gt;cd4b9acf&#45;3aac&#45;4892&#45;84fa&#45;8f4017dd6962 -->
<g id="edge3" class="edge">
<title>3dc9dd1a&#45;48a9&#45;4e2e&#45;b153&#45;1f263451a410&#45;&gt;cd4b9acf&#45;3aac&#45;4892&#45;84fa&#45;8f4017dd6962</title>
<path fill="none" stroke="black" stroke-dasharray="5,2" d="M455.12,-73.16C458.74,-64.41 462.78,-54.62 466.43,-45.79"/>
<polygon fill="black" stroke="black" points="469.75,-46.92 470.34,-36.34 463.28,-44.24 469.75,-46.92"/>
</g>
</g>
</svg>
