<?xml version="1.0" encoding="UTF-8" standalone="no"?>
<!DOCTYPE svg PUBLIC "-//W3C//DTD SVG 1.1//EN"
 "http://www.w3.org/Graphics/SVG/1.1/DTD/svg11.dtd">
<!-- Generated by graphviz version 2.43.0 (0)
 -->
<!-- Title: %3 Pages: 1 -->
<svg width="774pt" height="238pt"
 viewBox="0.00 0.00 774.00 237.74" xmlns="http://www.w3.org/2000/svg" xmlns:xlink="http://www.w3.org/1999/xlink">
<g id="graph0" class="graph" transform="scale(1 1) rotate(0) translate(36 201.74)">
<title>%3</title>
<polygon fill="dimgray" stroke="transparent" points="-36,36 -36,-201.74 738,-201.74 738,36 -36,36"/>
<text text-anchor="middle" x="351" y="-150.54" font-family="Helvetica,sans-Serif" font-size="14.00">Sweep&#39;s Plan &amp; Progress</text>
<!-- start -->
<g id="node1" class="node">
<title>start</title>
</g>
<!-- 4d6d5e3b&#45;cbe6&#45;4747&#45;a186&#45;487b870758cd -->
<g id="node3" class="node">
<title>4d6d5e3b&#45;cbe6&#45;4747&#45;a186&#45;487b870758cd</title>
<ellipse fill="yellow" stroke="black" cx="237.5" cy="-99.87" rx="123.07" ry="26.74"/>
<text text-anchor="middle" x="237.5" y="-103.67" font-family="Helvetica,sans-Serif" font-size="14.00">⋯ Create</text>
<text text-anchor="middle" x="237.5" y="-88.67" font-family="Helvetica,sans-Serif" font-size="14.00">src/business_model.py</text>
</g>
<!-- start&#45;&gt;4d6d5e3b&#45;cbe6&#45;4747&#45;a186&#45;487b870758cd -->
<g id="edge4" class="edge">
<title>start&#45;&gt;4d6d5e3b&#45;cbe6&#45;4747&#45;a186&#45;487b870758cd</title>
<path fill="none" stroke="black" d="M63,-99.87C66.03,-99.87 82.42,-99.87 104.05,-99.87"/>
<polygon fill="black" stroke="black" points="104.33,-103.37 114.33,-99.87 104.32,-96.37 104.33,-103.37"/>
<text text-anchor="middle" x="88.73" y="-106.67" font-family="Helvetica,sans-Serif" font-size="14.00">Start</text>
</g>
<!-- end -->
<g id="node2" class="node">
<title>end</title>
</g>
<!-- 886e5c7e&#45;85ad&#45;4769&#45;b8c1&#45;d4bd88eaa5c9 -->
<g id="node4" class="node">
<title>886e5c7e&#45;85ad&#45;4769&#45;b8c1&#45;d4bd88eaa5c9</title>
<ellipse fill="white" stroke="black" cx="514.5" cy="-99.87" rx="90.52" ry="26.74"/>
<text text-anchor="middle" x="514.5" y="-103.67" font-family="Helvetica,sans-Serif" font-size="14.00">▶ Modify</text>
<text text-anchor="middle" x="514.5" y="-88.67" font-family="Helvetica,sans-Serif" font-size="14.00">project_plan.md</text>
</g>
<!-- 4d6d5e3b&#45;cbe6&#45;4747&#45;a186&#45;487b870758cd&#45;&gt;886e5c7e&#45;85ad&#45;4769&#45;b8c1&#45;d4bd88eaa5c9 -->
<g id="edge2" class="edge">
<title>4d6d5e3b&#45;cbe6&#45;4747&#45;a186&#45;487b870758cd&#45;&gt;886e5c7e&#45;85ad&#45;4769&#45;b8c1&#45;d4bd88eaa5c9</title>
<path fill="none" stroke="black" d="M360.58,-99.87C378.17,-99.87 395.76,-99.87 413.35,-99.87"/>
<polygon fill="black" stroke="black" points="413.71,-103.37 423.71,-99.87 413.71,-96.37 413.71,-103.37"/>
</g>
<!-- e57cb128&#45;fc99&#45;4559&#45;8575&#45;3c18e73c9dcf -->
<g id="node5" class="node">
<title>e57cb128&#45;fc99&#45;4559&#45;8575&#45;3c18e73c9dcf</title>
<polygon fill="white" stroke="black" points="365,-36 0,-36 0,0 365,0 365,-36"/>
<text text-anchor="middle" x="182.5" y="-14.3" font-family="Helvetica,sans-Serif" font-size="14.00">▶ Run GitHub Actions for `src/business_model.py`</text>
</g>
<!-- 4d6d5e3b&#45;cbe6&#45;4747&#45;a186&#45;487b870758cd&#45;&gt;e57cb128&#45;fc99&#45;4559&#45;8575&#45;3c18e73c9dcf -->
<g id="edge1" class="edge">
<title>4d6d5e3b&#45;cbe6&#45;4747&#45;a186&#45;487b870758cd&#45;&gt;e57cb128&#45;fc99&#45;4559&#45;8575&#45;3c18e73c9dcf</title>
<path fill="none" stroke="black" stroke-dasharray="5,2" d="M219.79,-73.16C213.51,-64.04 206.45,-53.77 200.17,-44.65"/>
<polygon fill="black" stroke="black" points="202.99,-42.59 194.44,-36.34 197.23,-46.56 202.99,-42.59"/>
</g>
<!-- 886e5c7e&#45;85ad&#45;4769&#45;b8c1&#45;d4bd88eaa5c9&#45;&gt;end -->
<g id="edge5" class="edge">
<title>886e5c7e&#45;85ad&#45;4769&#45;b8c1&#45;d4bd88eaa5c9&#45;&gt;end</title>
<path fill="none" stroke="black" d="M605.04,-99.87C624.26,-99.87 641.98,-99.87 652.76,-99.87"/>
<polygon fill="black" stroke="black" points="652.8,-103.37 662.8,-99.87 652.8,-96.37 652.8,-103.37"/>
<text text-anchor="middle" x="634" y="-106.67" font-family="Helvetica,sans-Serif" font-size="14.00">Finish</text>
</g>
<!-- b34021f5&#45;f9fd&#45;433a&#45;90a9&#45;4bbe9103e459 -->
<g id="node6" class="node">
<title>b34021f5&#45;f9fd&#45;433a&#45;90a9&#45;4bbe9103e459</title>
<polygon fill="white" stroke="black" points="702,-36 383,-36 383,0 702,0 702,-36"/>
<text text-anchor="middle" x="542.5" y="-14.3" font-family="Helvetica,sans-Serif" font-size="14.00">▶ Run GitHub Actions for `project_plan.md`</text>
</g>
<!-- 886e5c7e&#45;85ad&#45;4769&#45;b8c1&#45;d4bd88eaa5c9&#45;&gt;b34021f5&#45;f9fd&#45;433a&#45;90a9&#45;4bbe9103e459 -->
<g id="edge3" class="edge">
<title>886e5c7e&#45;85ad&#45;4769&#45;b8c1&#45;d4bd88eaa5c9&#45;&gt;b34021f5&#45;f9fd&#45;433a&#45;90a9&#45;4bbe9103e459</title>
<path fill="none" stroke="black" stroke-dasharray="5,2" d="M523.67,-72.72C526.69,-64.08 530.06,-54.47 533.11,-45.79"/>
<polygon fill="black" stroke="black" points="536.48,-46.74 536.49,-36.15 529.88,-44.43 536.48,-46.74"/>
</g>
</g>
</svg>
