<?xml version="1.0" encoding="UTF-8" standalone="no"?>
<!DOCTYPE svg PUBLIC "-//W3C//DTD SVG 1.1//EN"
 "http://www.w3.org/Graphics/SVG/1.1/DTD/svg11.dtd">
<!-- Generated by graphviz version 2.43.0 (0)
 -->
<!-- Title: %3 Pages: 1 -->
<svg width="686pt" height="238pt"
 viewBox="0.00 0.00 685.50 237.74" xmlns="http://www.w3.org/2000/svg" xmlns:xlink="http://www.w3.org/1999/xlink">
<g id="graph0" class="graph" transform="scale(1 1) rotate(0) translate(36 201.74)">
<title>%3</title>
<polygon fill="dimgray" stroke="transparent" points="-36,36 -36,-201.74 649.5,-201.74 649.5,36 -36,36"/>
<text text-anchor="middle" x="306.75" y="-150.54" font-family="Helvetica,sans-Serif" font-size="14.00">Sweep&#39;s Plan &amp; Progress</text>
<!-- start -->
<g id="node1" class="node">
<title>start</title>
</g>
<!-- b705e390&#45;ea67&#45;4060&#45;994e&#45;9b28960bd5ab -->
<g id="node3" class="node">
<title>b705e390&#45;ea67&#45;4060&#45;994e&#45;9b28960bd5ab</title>
<ellipse fill="#0ee832" stroke="black" cx="226" cy="-99.87" rx="90.52" ry="26.74"/>
<text text-anchor="middle" x="226" y="-103.67" font-family="Helvetica,sans-Serif" font-size="14.00">✓ Create</text>
<text text-anchor="middle" x="226" y="-88.67" font-family="Helvetica,sans-Serif" font-size="14.00">project_plan.md</text>
</g>
<!-- start&#45;&gt;b705e390&#45;ea67&#45;4060&#45;994e&#45;9b28960bd5ab -->
<g id="edge4" class="edge">
<title>start&#45;&gt;b705e390&#45;ea67&#45;4060&#45;994e&#45;9b28960bd5ab</title>
<path fill="none" stroke="black" d="M83.64,-99.87C87.06,-99.87 103.92,-99.87 124.91,-99.87"/>
<polygon fill="black" stroke="black" points="125.15,-103.37 135.15,-99.87 125.15,-96.37 125.15,-103.37"/>
<text text-anchor="middle" x="109.5" y="-106.67" font-family="Helvetica,sans-Serif" font-size="14.00">Start</text>
</g>
<!-- end -->
<g id="node2" class="node">
<title>end</title>
</g>
<!-- 3dc9dd1a&#45;48a9&#45;4e2e&#45;b153&#45;1f263451a410 -->
<g id="node4" class="node">
<title>3dc9dd1a&#45;48a9&#45;4e2e&#45;b153&#45;1f263451a410</title>
<ellipse fill="#0ee832" stroke="black" cx="443" cy="-99.87" rx="56.64" ry="26.74"/>
<text text-anchor="middle" x="443" y="-103.67" font-family="Helvetica,sans-Serif" font-size="14.00">✓ Modify</text>
<text text-anchor="middle" x="443" y="-88.67" font-family="Helvetica,sans-Serif" font-size="14.00">ideas.md</text>
</g>
<!-- b705e390&#45;ea67&#45;4060&#45;994e&#45;9b28960bd5ab&#45;&gt;3dc9dd1a&#45;48a9&#45;4e2e&#45;b153&#45;1f263451a410 -->
<g id="edge2" class="edge">
<title>b705e390&#45;ea67&#45;4060&#45;994e&#45;9b28960bd5ab&#45;&gt;3dc9dd1a&#45;48a9&#45;4e2e&#45;b153&#45;1f263451a410</title>
<path fill="none" stroke="black" d="M316.7,-99.87C336.54,-99.87 356.37,-99.87 376.21,-99.87"/>
<polygon fill="black" stroke="black" points="376.26,-103.37 386.26,-99.87 376.26,-96.37 376.26,-103.37"/>
</g>
<!-- c1d4b74f&#45;0f37&#45;40f3&#45;8682&#45;859d4ce11adc -->
<g id="node5" class="node">
<title>c1d4b74f&#45;0f37&#45;40f3&#45;8682&#45;859d4ce11adc</title>
<polygon fill="#0ee832" stroke="black" points="320,-36 0,-36 0,0 320,0 320,-36"/>
<text text-anchor="middle" x="160" y="-14.3" font-family="Helvetica,sans-Serif" font-size="14.00">✓ Run GitHub Actions for `project_plan.md`</text>
</g>
<!-- b705e390&#45;ea67&#45;4060&#45;994e&#45;9b28960bd5ab&#45;&gt;c1d4b74f&#45;0f37&#45;40f3&#45;8682&#45;859d4ce11adc -->
<g id="edge1" class="edge">
<title>b705e390&#45;ea67&#45;4060&#45;994e&#45;9b28960bd5ab&#45;&gt;c1d4b74f&#45;0f37&#45;40f3&#45;8682&#45;859d4ce11adc</title>
<path fill="none" stroke="black" stroke-dasharray="5,2" d="M205.12,-73.6C197.29,-64.13 188.4,-53.37 180.6,-43.93"/>
<polygon fill="black" stroke="black" points="183.15,-41.52 174.08,-36.04 177.75,-45.97 183.15,-41.52"/>
</g>
<!-- 3dc9dd1a&#45;48a9&#45;4e2e&#45;b153&#45;1f263451a410&#45;&gt;end -->
<g id="edge5" class="edge">
<title>3dc9dd1a&#45;48a9&#45;4e2e&#45;b153&#45;1f263451a410&#45;&gt;end</title>
<path fill="none" stroke="black" d="M499.83,-99.87C517.88,-99.87 536.02,-99.87 547.13,-99.87"/>
<polygon fill="black" stroke="black" points="547.25,-103.37 557.25,-99.87 547.25,-96.37 547.25,-103.37"/>
<text text-anchor="middle" x="528.53" y="-106.67" font-family="Helvetica,sans-Serif" font-size="14.00">Finish</text>
</g>
<!-- cd4b9acf&#45;3aac&#45;4892&#45;84fa&#45;8f4017dd6962 -->
<g id="node6" class="node">
<title>cd4b9acf&#45;3aac&#45;4892&#45;84fa&#45;8f4017dd6962</title>
<polygon fill="yellow" stroke="black" points="613.5,-36 338.5,-36 338.5,0 613.5,0 613.5,-36"/>
<text text-anchor="middle" x="476" y="-14.3" font-family="Helvetica,sans-Serif" font-size="14.00">⋯ Run GitHub Actions for `ideas.md`</text>
</g>
<!-- 3dc9dd1a&#45;48a9&#45;4e2e&#45;b153&#45;1f263451a410&#45;&gt;cd4b9acf&#45;3aac&#45;4892&#45;84fa&#45;8f4017dd6962 -->
<g id="edge3" class="edge">
<title>3dc9dd1a&#45;48a9&#45;4e2e&#45;b153&#45;1f263451a410&#45;&gt;cd4b9acf&#45;3aac&#45;4892&#45;84fa&#45;8f4017dd6962</title>
<path fill="none" stroke="black" stroke-dasharray="5,2" d="M453.62,-73.16C457.24,-64.41 461.28,-54.62 464.93,-45.79"/>
<polygon fill="black" stroke="black" points="468.25,-46.92 468.84,-36.34 461.78,-44.24 468.25,-46.92"/>
</g>
</g>
</svg>
