<?xml version="1.0" encoding="UTF-8" standalone="no"?>
<!DOCTYPE svg PUBLIC "-//W3C//DTD SVG 1.1//EN"
 "http://www.w3.org/Graphics/SVG/1.1/DTD/svg11.dtd">
<!-- Generated by graphviz version 2.43.0 (0)
 -->
<!-- Title: %3 Pages: 1 -->
<svg width="778pt" height="238pt"
 viewBox="0.00 0.00 778.00 237.74" xmlns="http://www.w3.org/2000/svg" xmlns:xlink="http://www.w3.org/1999/xlink">
<g id="graph0" class="graph" transform="scale(1 1) rotate(0) translate(36 201.74)">
<title>%3</title>
<polygon fill="dimgray" stroke="transparent" points="-36,36 -36,-201.74 742,-201.74 742,36 -36,36"/>
<text text-anchor="middle" x="353" y="-150.54" font-family="Helvetica,sans-Serif" font-size="14.00">Sweep&#39;s Plan &amp; Progress</text>
<!-- start -->
<g id="node1" class="node">
<title>start</title>
</g>
<!-- 4d6d5e3b&#45;cbe6&#45;4747&#45;a186&#45;487b870758cd -->
<g id="node3" class="node">
<title>4d6d5e3b&#45;cbe6&#45;4747&#45;a186&#45;487b870758cd</title>
<ellipse fill="#0ee832" stroke="black" cx="240.5" cy="-99.87" rx="123.07" ry="26.74"/>
<text text-anchor="middle" x="240.5" y="-103.67" font-family="Helvetica,sans-Serif" font-size="14.00">✓ Create</text>
<text text-anchor="middle" x="240.5" y="-88.67" font-family="Helvetica,sans-Serif" font-size="14.00">src/business_model.py</text>
</g>
<!-- start&#45;&gt;4d6d5e3b&#45;cbe6&#45;4747&#45;a186&#45;487b870758cd -->
<g id="edge4" class="edge">
<title>start&#45;&gt;4d6d5e3b&#45;cbe6&#45;4747&#45;a186&#45;487b870758cd</title>
<path fill="none" stroke="black" d="M66,-99.87C69.03,-99.87 85.42,-99.87 107.05,-99.87"/>
<polygon fill="black" stroke="black" points="107.33,-103.37 117.33,-99.87 107.32,-96.37 107.33,-103.37"/>
<text text-anchor="middle" x="91.73" y="-106.67" font-family="Helvetica,sans-Serif" font-size="14.00">Start</text>
</g>
<!-- end -->
<g id="node2" class="node">
<title>end</title>
</g>
<!-- 886e5c7e&#45;85ad&#45;4769&#45;b8c1&#45;d4bd88eaa5c9 -->
<g id="node4" class="node">
<title>886e5c7e&#45;85ad&#45;4769&#45;b8c1&#45;d4bd88eaa5c9</title>
<ellipse fill="white" stroke="black" cx="518.5" cy="-99.87" rx="90.52" ry="26.74"/>
<text text-anchor="middle" x="518.5" y="-103.67" font-family="Helvetica,sans-Serif" font-size="14.00">▶ Modify</text>
<text text-anchor="middle" x="518.5" y="-88.67" font-family="Helvetica,sans-Serif" font-size="14.00">project_plan.md</text>
</g>
<!-- 4d6d5e3b&#45;cbe6&#45;4747&#45;a186&#45;487b870758cd&#45;&gt;886e5c7e&#45;85ad&#45;4769&#45;b8c1&#45;d4bd88eaa5c9 -->
<g id="edge2" class="edge">
<title>4d6d5e3b&#45;cbe6&#45;4747&#45;a186&#45;487b870758cd&#45;&gt;886e5c7e&#45;85ad&#45;4769&#45;b8c1&#45;d4bd88eaa5c9</title>
<path fill="none" stroke="black" d="M363.75,-99.87C381.77,-99.87 399.8,-99.87 417.82,-99.87"/>
<polygon fill="black" stroke="black" points="417.83,-103.37 427.83,-99.87 417.83,-96.37 417.83,-103.37"/>
</g>
<!-- e57cb128&#45;fc99&#45;4559&#45;8575&#45;3c18e73c9dcf -->
<g id="node5" class="node">
<title>e57cb128&#45;fc99&#45;4559&#45;8575&#45;3c18e73c9dcf</title>
<polygon fill="yellow" stroke="black" points="369,-36 0,-36 0,0 369,0 369,-36"/>
<text text-anchor="middle" x="184.5" y="-14.3" font-family="Helvetica,sans-Serif" font-size="14.00">⋯ Run GitHub Actions for `src/business_model.py`</text>
</g>
<!-- 4d6d5e3b&#45;cbe6&#45;4747&#45;a186&#45;487b870758cd&#45;&gt;e57cb128&#45;fc99&#45;4559&#45;8575&#45;3c18e73c9dcf -->
<g id="edge1" class="edge">
<title>4d6d5e3b&#45;cbe6&#45;4747&#45;a186&#45;487b870758cd&#45;&gt;e57cb128&#45;fc99&#45;4559&#45;8575&#45;3c18e73c9dcf</title>
<path fill="none" stroke="black" stroke-dasharray="5,2" d="M222.47,-73.16C216.08,-64.04 208.88,-53.77 202.49,-44.65"/>
<polygon fill="black" stroke="black" points="205.26,-42.52 196.66,-36.34 199.53,-46.53 205.26,-42.52"/>
</g>
<!-- 886e5c7e&#45;85ad&#45;4769&#45;b8c1&#45;d4bd88eaa5c9&#45;&gt;end -->
<g id="edge5" class="edge">
<title>886e5c7e&#45;85ad&#45;4769&#45;b8c1&#45;d4bd88eaa5c9&#45;&gt;end</title>
<path fill="none" stroke="black" d="M609.04,-99.87C628.26,-99.87 645.98,-99.87 656.76,-99.87"/>
<polygon fill="black" stroke="black" points="656.8,-103.37 666.8,-99.87 656.8,-96.37 656.8,-103.37"/>
<text text-anchor="middle" x="638" y="-106.67" font-family="Helvetica,sans-Serif" font-size="14.00">Finish</text>
</g>
<!-- b34021f5&#45;f9fd&#45;433a&#45;90a9&#45;4bbe9103e459 -->
<g id="node6" class="node">
<title>b34021f5&#45;f9fd&#45;433a&#45;90a9&#45;4bbe9103e459</title>
<polygon fill="white" stroke="black" points="706,-36 387,-36 387,0 706,0 706,-36"/>
<text text-anchor="middle" x="546.5" y="-14.3" font-family="Helvetica,sans-Serif" font-size="14.00">▶ Run GitHub Actions for `project_plan.md`</text>
</g>
<!-- 886e5c7e&#45;85ad&#45;4769&#45;b8c1&#45;d4bd88eaa5c9&#45;&gt;b34021f5&#45;f9fd&#45;433a&#45;90a9&#45;4bbe9103e459 -->
<g id="edge3" class="edge">
<title>886e5c7e&#45;85ad&#45;4769&#45;b8c1&#45;d4bd88eaa5c9&#45;&gt;b34021f5&#45;f9fd&#45;433a&#45;90a9&#45;4bbe9103e459</title>
<path fill="none" stroke="black" stroke-dasharray="5,2" d="M527.67,-72.72C530.69,-64.08 534.06,-54.47 537.11,-45.79"/>
<polygon fill="black" stroke="black" points="540.48,-46.74 540.49,-36.15 533.88,-44.43 540.48,-46.74"/>
</g>
</g>
</svg>
