<?xml version="1.0" encoding="UTF-8" standalone="no"?>
<!DOCTYPE svg PUBLIC "-//W3C//DTD SVG 1.1//EN"
 "http://www.w3.org/Graphics/SVG/1.1/DTD/svg11.dtd">
<!-- Generated by graphviz version 2.43.0 (0)
 -->
<!-- Title: %3 Pages: 1 -->
<svg width="670pt" height="238pt"
 viewBox="0.00 0.00 669.50 237.74" xmlns="http://www.w3.org/2000/svg" xmlns:xlink="http://www.w3.org/1999/xlink">
<g id="graph0" class="graph" transform="scale(1 1) rotate(0) translate(36 201.74)">
<title>%3</title>
<polygon fill="dimgray" stroke="transparent" points="-36,36 -36,-201.74 633.5,-201.74 633.5,36 -36,36"/>
<text text-anchor="middle" x="298.75" y="-150.54" font-family="Helvetica,sans-Serif" font-size="14.00">Sweep&#39;s Plan &amp; Progress</text>
<!-- start -->
<g id="node1" class="node">
<title>start</title>
</g>
<!-- c3d37fa3&#45;7282&#45;4068&#45;9a89&#45;fb24faab9520 -->
<g id="node3" class="node">
<title>c3d37fa3&#45;7282&#45;4068&#45;9a89&#45;fb24faab9520</title>
<ellipse fill="#0ee832" stroke="black" cx="200.5" cy="-99.87" rx="55.31" ry="26.74"/>
<text text-anchor="middle" x="200.5" y="-103.67" font-family="Helvetica,sans-Serif" font-size="14.00">✓ Create</text>
<text text-anchor="middle" x="200.5" y="-88.67" font-family="Helvetica,sans-Serif" font-size="14.00">plan.md</text>
</g>
<!-- start&#45;&gt;c3d37fa3&#45;7282&#45;4068&#45;9a89&#45;fb24faab9520 -->
<g id="edge4" class="edge">
<title>start&#45;&gt;c3d37fa3&#45;7282&#45;4068&#45;9a89&#45;fb24faab9520</title>
<path fill="none" stroke="black" d="M94.18,-99.87C97.79,-99.87 115.21,-99.87 134.94,-99.87"/>
<polygon fill="black" stroke="black" points="135.09,-103.37 145.09,-99.87 135.09,-96.37 135.09,-103.37"/>
<text text-anchor="middle" x="119.67" y="-106.67" font-family="Helvetica,sans-Serif" font-size="14.00">Start</text>
</g>
<!-- end -->
<g id="node2" class="node">
<title>end</title>
</g>
<!-- e690e948&#45;d3b7&#45;480e&#45;95b4&#45;d61b3e6bf359 -->
<g id="node4" class="node">
<title>e690e948&#45;d3b7&#45;480e&#45;95b4&#45;d61b3e6bf359</title>
<ellipse fill="white" stroke="black" cx="409.5" cy="-99.87" rx="84.29" ry="26.74"/>
<text text-anchor="middle" x="409.5" y="-103.67" font-family="Helvetica,sans-Serif" font-size="14.00">▶ Modify</text>
<text text-anchor="middle" x="409.5" y="-88.67" font-family="Helvetica,sans-Serif" font-size="14.00">docs/index.md</text>
</g>
<!-- c3d37fa3&#45;7282&#45;4068&#45;9a89&#45;fb24faab9520&#45;&gt;e690e948&#45;d3b7&#45;480e&#45;95b4&#45;d61b3e6bf359 -->
<g id="edge2" class="edge">
<title>c3d37fa3&#45;7282&#45;4068&#45;9a89&#45;fb24faab9520&#45;&gt;e690e948&#45;d3b7&#45;480e&#45;95b4&#45;d61b3e6bf359</title>
<path fill="none" stroke="black" d="M256.02,-99.87C275.76,-99.87 295.51,-99.87 315.25,-99.87"/>
<polygon fill="black" stroke="black" points="315.26,-103.37 325.26,-99.87 315.26,-96.37 315.26,-103.37"/>
</g>
<!-- 45f3d51f&#45;b87c&#45;4508&#45;83b7&#45;f97fa6c27d1d -->
<g id="node5" class="node">
<title>45f3d51f&#45;b87c&#45;4508&#45;83b7&#45;f97fa6c27d1d</title>
<polygon fill="yellow" stroke="black" points="269,-36 0,-36 0,0 269,0 269,-36"/>
<text text-anchor="middle" x="134.5" y="-14.3" font-family="Helvetica,sans-Serif" font-size="14.00">⋯ Run GitHub Actions for `plan.md`</text>
</g>
<!-- c3d37fa3&#45;7282&#45;4068&#45;9a89&#45;fb24faab9520&#45;&gt;45f3d51f&#45;b87c&#45;4508&#45;83b7&#45;f97fa6c27d1d -->
<g id="edge1" class="edge">
<title>c3d37fa3&#45;7282&#45;4068&#45;9a89&#45;fb24faab9520&#45;&gt;45f3d51f&#45;b87c&#45;4508&#45;83b7&#45;f97fa6c27d1d</title>
<path fill="none" stroke="black" stroke-dasharray="5,2" d="M180.34,-74.47C172.34,-64.8 163.15,-53.68 155.11,-43.95"/>
<polygon fill="black" stroke="black" points="157.75,-41.64 148.68,-36.16 152.35,-46.1 157.75,-41.64"/>
</g>
<!-- e690e948&#45;d3b7&#45;480e&#45;95b4&#45;d61b3e6bf359&#45;&gt;end -->
<g id="edge5" class="edge">
<title>e690e948&#45;d3b7&#45;480e&#45;95b4&#45;d61b3e6bf359&#45;&gt;end</title>
<path fill="none" stroke="black" d="M493.74,-99.87C512.36,-99.87 529.72,-99.87 540.45,-99.87"/>
<polygon fill="black" stroke="black" points="540.8,-103.37 550.8,-99.87 540.8,-96.37 540.8,-103.37"/>
<text text-anchor="middle" x="522.32" y="-106.67" font-family="Helvetica,sans-Serif" font-size="14.00">Finish</text>
</g>
<!-- c4557aa8&#45;7d31&#45;479a&#45;b49c&#45;9b4c91a37d9c -->
<g id="node6" class="node">
<title>c4557aa8&#45;7d31&#45;479a&#45;b49c&#45;9b4c91a37d9c</title>
<polygon fill="white" stroke="black" points="597.5,-36 287.5,-36 287.5,0 597.5,0 597.5,-36"/>
<text text-anchor="middle" x="442.5" y="-14.3" font-family="Helvetica,sans-Serif" font-size="14.00">▶ Run GitHub Actions for `docs/index.md`</text>
</g>
<!-- e690e948&#45;d3b7&#45;480e&#45;95b4&#45;d61b3e6bf359&#45;&gt;c4557aa8&#45;7d31&#45;479a&#45;b49c&#45;9b4c91a37d9c -->
<g id="edge3" class="edge">
<title>e690e948&#45;d3b7&#45;480e&#45;95b4&#45;d61b3e6bf359&#45;&gt;c4557aa8&#45;7d31&#45;479a&#45;b49c&#45;9b4c91a37d9c</title>
<path fill="none" stroke="black" stroke-dasharray="5,2" d="M420.12,-73.16C423.74,-64.41 427.78,-54.62 431.43,-45.79"/>
<polygon fill="black" stroke="black" points="434.75,-46.92 435.34,-36.34 428.28,-44.24 434.75,-46.92"/>
</g>
</g>
</svg>
