<?xml version="1.0" encoding="UTF-8" standalone="no"?>
<!DOCTYPE svg PUBLIC "-//W3C//DTD SVG 1.1//EN"
 "http://www.w3.org/Graphics/SVG/1.1/DTD/svg11.dtd">
<!-- Generated by graphviz version 2.43.0 (0)
 -->
<!-- Title: %3 Pages: 1 -->
<svg width="778pt" height="238pt"
 viewBox="0.00 0.00 777.50 237.74" xmlns="http://www.w3.org/2000/svg" xmlns:xlink="http://www.w3.org/1999/xlink">
<g id="graph0" class="graph" transform="scale(1 1) rotate(0) translate(36 201.74)">
<title>%3</title>
<polygon fill="dimgray" stroke="transparent" points="-36,36 -36,-201.74 741.5,-201.74 741.5,36 -36,36"/>
<text text-anchor="middle" x="352.75" y="-150.54" font-family="Helvetica,sans-Serif" font-size="14.00">Sweep&#39;s Plan &amp; Progress</text>
<!-- start -->
<g id="node1" class="node">
<title>start</title>
</g>
<!-- 4d6d5e3b&#45;cbe6&#45;4747&#45;a186&#45;487b870758cd -->
<g id="node3" class="node">
<title>4d6d5e3b&#45;cbe6&#45;4747&#45;a186&#45;487b870758cd</title>
<ellipse fill="#0ee832" stroke="black" cx="239.5" cy="-99.87" rx="123.07" ry="26.74"/>
<text text-anchor="middle" x="239.5" y="-103.67" font-family="Helvetica,sans-Serif" font-size="14.00">✓ Create</text>
<text text-anchor="middle" x="239.5" y="-88.67" font-family="Helvetica,sans-Serif" font-size="14.00">src/business_model.py</text>
</g>
<!-- start&#45;&gt;4d6d5e3b&#45;cbe6&#45;4747&#45;a186&#45;487b870758cd -->
<g id="edge4" class="edge">
<title>start&#45;&gt;4d6d5e3b&#45;cbe6&#45;4747&#45;a186&#45;487b870758cd</title>
<path fill="none" stroke="black" d="M65,-99.87C68.03,-99.87 84.42,-99.87 106.05,-99.87"/>
<polygon fill="black" stroke="black" points="106.33,-103.37 116.33,-99.87 106.32,-96.37 106.33,-103.37"/>
<text text-anchor="middle" x="90.73" y="-106.67" font-family="Helvetica,sans-Serif" font-size="14.00">Start</text>
</g>
<!-- end -->
<g id="node2" class="node">
<title>end</title>
</g>
<!-- 886e5c7e&#45;85ad&#45;4769&#45;b8c1&#45;d4bd88eaa5c9 -->
<g id="node4" class="node">
<title>886e5c7e&#45;85ad&#45;4769&#45;b8c1&#45;d4bd88eaa5c9</title>
<ellipse fill="#ee0000" stroke="black" cx="517.5" cy="-99.87" rx="90.52" ry="26.74"/>
<text text-anchor="middle" x="517.5" y="-103.67" font-family="Helvetica,sans-Serif" font-size="14.00">✗ Modify</text>
<text text-anchor="middle" x="517.5" y="-88.67" font-family="Helvetica,sans-Serif" font-size="14.00">project_plan.md</text>
</g>
<!-- 4d6d5e3b&#45;cbe6&#45;4747&#45;a186&#45;487b870758cd&#45;&gt;886e5c7e&#45;85ad&#45;4769&#45;b8c1&#45;d4bd88eaa5c9 -->
<g id="edge2" class="edge">
<title>4d6d5e3b&#45;cbe6&#45;4747&#45;a186&#45;487b870758cd&#45;&gt;886e5c7e&#45;85ad&#45;4769&#45;b8c1&#45;d4bd88eaa5c9</title>
<path fill="none" stroke="black" d="M362.75,-99.87C380.77,-99.87 398.8,-99.87 416.82,-99.87"/>
<polygon fill="black" stroke="black" points="416.83,-103.37 426.83,-99.87 416.83,-96.37 416.83,-103.37"/>
</g>
<!-- e57cb128&#45;fc99&#45;4559&#45;8575&#45;3c18e73c9dcf -->
<g id="node5" class="node">
<title>e57cb128&#45;fc99&#45;4559&#45;8575&#45;3c18e73c9dcf</title>
<polygon fill="#0ee832" stroke="black" points="367,-36 0,-36 0,0 367,0 367,-36"/>
<text text-anchor="middle" x="183.5" y="-14.3" font-family="Helvetica,sans-Serif" font-size="14.00">✓ Run GitHub Actions for `src/business_model.py`</text>
</g>
<!-- 4d6d5e3b&#45;cbe6&#45;4747&#45;a186&#45;487b870758cd&#45;&gt;e57cb128&#45;fc99&#45;4559&#45;8575&#45;3c18e73c9dcf -->
<g id="edge1" class="edge">
<title>4d6d5e3b&#45;cbe6&#45;4747&#45;a186&#45;487b870758cd&#45;&gt;e57cb128&#45;fc99&#45;4559&#45;8575&#45;3c18e73c9dcf</title>
<path fill="none" stroke="black" stroke-dasharray="5,2" d="M221.47,-73.16C215.08,-64.04 207.88,-53.77 201.49,-44.65"/>
<polygon fill="black" stroke="black" points="204.26,-42.52 195.66,-36.34 198.53,-46.53 204.26,-42.52"/>
</g>
<!-- 886e5c7e&#45;85ad&#45;4769&#45;b8c1&#45;d4bd88eaa5c9&#45;&gt;end -->
<g id="edge5" class="edge">
<title>886e5c7e&#45;85ad&#45;4769&#45;b8c1&#45;d4bd88eaa5c9&#45;&gt;end</title>
<path fill="none" stroke="black" d="M608.04,-99.87C627.26,-99.87 644.98,-99.87 655.76,-99.87"/>
<polygon fill="black" stroke="black" points="655.8,-103.37 665.8,-99.87 655.8,-96.37 655.8,-103.37"/>
<text text-anchor="middle" x="637" y="-106.67" font-family="Helvetica,sans-Serif" font-size="14.00">Finish</text>
</g>
<!-- b34021f5&#45;f9fd&#45;433a&#45;90a9&#45;4bbe9103e459 -->
<g id="node6" class="node">
<title>b34021f5&#45;f9fd&#45;433a&#45;90a9&#45;4bbe9103e459</title>
<polygon fill="#ee0000" stroke="black" points="705.5,-36 385.5,-36 385.5,0 705.5,0 705.5,-36"/>
<text text-anchor="middle" x="545.5" y="-14.3" font-family="Helvetica,sans-Serif" font-size="14.00">✗ Run GitHub Actions for `project_plan.md`</text>
</g>
<!-- 886e5c7e&#45;85ad&#45;4769&#45;b8c1&#45;d4bd88eaa5c9&#45;&gt;b34021f5&#45;f9fd&#45;433a&#45;90a9&#45;4bbe9103e459 -->
<g id="edge3" class="edge">
<title>886e5c7e&#45;85ad&#45;4769&#45;b8c1&#45;d4bd88eaa5c9&#45;&gt;b34021f5&#45;f9fd&#45;433a&#45;90a9&#45;4bbe9103e459</title>
<path fill="none" stroke="black" stroke-dasharray="5,2" d="M526.67,-72.72C529.69,-64.08 533.06,-54.47 536.11,-45.79"/>
<polygon fill="black" stroke="black" points="539.48,-46.74 539.49,-36.15 532.88,-44.43 539.48,-46.74"/>
</g>
</g>
</svg>
