<?xml version="1.0" encoding="UTF-8" standalone="no"?>
<!DOCTYPE svg PUBLIC "-//W3C//DTD SVG 1.1//EN"
 "http://www.w3.org/Graphics/SVG/1.1/DTD/svg11.dtd">
<!-- Generated by graphviz version 2.43.0 (0)
 -->
<!-- Title: %3 Pages: 1 -->
<svg width="666pt" height="238pt"
 viewBox="0.00 0.00 666.00 237.74" xmlns="http://www.w3.org/2000/svg" xmlns:xlink="http://www.w3.org/1999/xlink">
<g id="graph0" class="graph" transform="scale(1 1) rotate(0) translate(36 201.74)">
<title>%3</title>
<polygon fill="dimgray" stroke="transparent" points="-36,36 -36,-201.74 630,-201.74 630,36 -36,36"/>
<text text-anchor="middle" x="297" y="-150.54" font-family="Helvetica,sans-Serif" font-size="14.00">Sweep&#39;s Plan &amp; Progress</text>
<!-- start -->
<g id="node1" class="node">
<title>start</title>
</g>
<!-- c3d37fa3&#45;7282&#45;4068&#45;9a89&#45;fb24faab9520 -->
<g id="node3" class="node">
<title>c3d37fa3&#45;7282&#45;4068&#45;9a89&#45;fb24faab9520</title>
<ellipse fill="#0ee832" stroke="black" cx="198" cy="-99.87" rx="55.31" ry="26.74"/>
<text text-anchor="middle" x="198" y="-103.67" font-family="Helvetica,sans-Serif" font-size="14.00">✓ Create</text>
<text text-anchor="middle" x="198" y="-88.67" font-family="Helvetica,sans-Serif" font-size="14.00">plan.md</text>
</g>
<!-- start&#45;&gt;c3d37fa3&#45;7282&#45;4068&#45;9a89&#45;fb24faab9520 -->
<g id="edge4" class="edge">
<title>start&#45;&gt;c3d37fa3&#45;7282&#45;4068&#45;9a89&#45;fb24faab9520</title>
<path fill="none" stroke="black" d="M91.68,-99.87C95.29,-99.87 112.71,-99.87 132.44,-99.87"/>
<polygon fill="black" stroke="black" points="132.59,-103.37 142.59,-99.87 132.59,-96.37 132.59,-103.37"/>
<text text-anchor="middle" x="117.17" y="-106.67" font-family="Helvetica,sans-Serif" font-size="14.00">Start</text>
</g>
<!-- end -->
<g id="node2" class="node">
<title>end</title>
</g>
<!-- e690e948&#45;d3b7&#45;480e&#45;95b4&#45;d61b3e6bf359 -->
<g id="node4" class="node">
<title>e690e948&#45;d3b7&#45;480e&#45;95b4&#45;d61b3e6bf359</title>
<ellipse fill="white" stroke="black" cx="406" cy="-99.87" rx="84.29" ry="26.74"/>
<text text-anchor="middle" x="406" y="-103.67" font-family="Helvetica,sans-Serif" font-size="14.00">▶ Modify</text>
<text text-anchor="middle" x="406" y="-88.67" font-family="Helvetica,sans-Serif" font-size="14.00">docs/index.md</text>
</g>
<!-- c3d37fa3&#45;7282&#45;4068&#45;9a89&#45;fb24faab9520&#45;&gt;e690e948&#45;d3b7&#45;480e&#45;95b4&#45;d61b3e6bf359 -->
<g id="edge2" class="edge">
<title>c3d37fa3&#45;7282&#45;4068&#45;9a89&#45;fb24faab9520&#45;&gt;e690e948&#45;d3b7&#45;480e&#45;95b4&#45;d61b3e6bf359</title>
<path fill="none" stroke="black" d="M253.25,-99.87C272.64,-99.87 292.04,-99.87 311.43,-99.87"/>
<polygon fill="black" stroke="black" points="311.57,-103.37 321.57,-99.87 311.57,-96.37 311.57,-103.37"/>
</g>
<!-- 45f3d51f&#45;b87c&#45;4508&#45;83b7&#45;f97fa6c27d1d -->
<g id="node5" class="node">
<title>45f3d51f&#45;b87c&#45;4508&#45;83b7&#45;f97fa6c27d1d</title>
<polygon fill="#0ee832" stroke="black" points="266,-36 0,-36 0,0 266,0 266,-36"/>
<text text-anchor="middle" x="133" y="-14.3" font-family="Helvetica,sans-Serif" font-size="14.00">✓ Run GitHub Actions for `plan.md`</text>
</g>
<!-- c3d37fa3&#45;7282&#45;4068&#45;9a89&#45;fb24faab9520&#45;&gt;45f3d51f&#45;b87c&#45;4508&#45;83b7&#45;f97fa6c27d1d -->
<g id="edge1" class="edge">
<title>c3d37fa3&#45;7282&#45;4068&#45;9a89&#45;fb24faab9520&#45;&gt;45f3d51f&#45;b87c&#45;4508&#45;83b7&#45;f97fa6c27d1d</title>
<path fill="none" stroke="black" stroke-dasharray="5,2" d="M178.14,-74.47C170.27,-64.8 161.22,-53.68 153.3,-43.95"/>
<polygon fill="black" stroke="black" points="155.99,-41.71 146.97,-36.16 150.56,-46.13 155.99,-41.71"/>
</g>
<!-- e690e948&#45;d3b7&#45;480e&#45;95b4&#45;d61b3e6bf359&#45;&gt;end -->
<g id="edge5" class="edge">
<title>e690e948&#45;d3b7&#45;480e&#45;95b4&#45;d61b3e6bf359&#45;&gt;end</title>
<path fill="none" stroke="black" d="M490.24,-99.87C508.86,-99.87 526.22,-99.87 536.95,-99.87"/>
<polygon fill="black" stroke="black" points="537.3,-103.37 547.3,-99.87 537.3,-96.37 537.3,-103.37"/>
<text text-anchor="middle" x="518.82" y="-106.67" font-family="Helvetica,sans-Serif" font-size="14.00">Finish</text>
</g>
<!-- c4557aa8&#45;7d31&#45;479a&#45;b49c&#45;9b4c91a37d9c -->
<g id="node6" class="node">
<title>c4557aa8&#45;7d31&#45;479a&#45;b49c&#45;9b4c91a37d9c</title>
<polygon fill="white" stroke="black" points="594,-36 284,-36 284,0 594,0 594,-36"/>
<text text-anchor="middle" x="439" y="-14.3" font-family="Helvetica,sans-Serif" font-size="14.00">▶ Run GitHub Actions for `docs/index.md`</text>
</g>
<!-- e690e948&#45;d3b7&#45;480e&#45;95b4&#45;d61b3e6bf359&#45;&gt;c4557aa8&#45;7d31&#45;479a&#45;b49c&#45;9b4c91a37d9c -->
<g id="edge3" class="edge">
<title>e690e948&#45;d3b7&#45;480e&#45;95b4&#45;d61b3e6bf359&#45;&gt;c4557aa8&#45;7d31&#45;479a&#45;b49c&#45;9b4c91a37d9c</title>
<path fill="none" stroke="black" stroke-dasharray="5,2" d="M416.62,-73.16C420.24,-64.41 424.28,-54.62 427.93,-45.79"/>
<polygon fill="black" stroke="black" points="431.25,-46.92 431.84,-36.34 424.78,-44.24 431.25,-46.92"/>
</g>
</g>
</svg>
