<?xml version="1.0" encoding="UTF-8" standalone="no"?>
<!DOCTYPE svg PUBLIC "-//W3C//DTD SVG 1.1//EN"
 "http://www.w3.org/Graphics/SVG/1.1/DTD/svg11.dtd">
<!-- Generated by graphviz version 2.43.0 (0)
 -->
<!-- Title: %3 Pages: 1 -->
<svg width="666pt" height="238pt"
 viewBox="0.00 0.00 665.50 237.74" xmlns="http://www.w3.org/2000/svg" xmlns:xlink="http://www.w3.org/1999/xlink">
<g id="graph0" class="graph" transform="scale(1 1) rotate(0) translate(36 201.74)">
<title>%3</title>
<polygon fill="dimgray" stroke="transparent" points="-36,36 -36,-201.74 629.5,-201.74 629.5,36 -36,36"/>
<text text-anchor="middle" x="296.75" y="-150.54" font-family="Helvetica,sans-Serif" font-size="14.00">Sweep&#39;s Plan &amp; Progress</text>
<!-- start -->
<g id="node1" class="node">
<title>start</title>
</g>
<!-- c3d37fa3&#45;7282&#45;4068&#45;9a89&#45;fb24faab9520 -->
<g id="node3" class="node">
<title>c3d37fa3&#45;7282&#45;4068&#45;9a89&#45;fb24faab9520</title>
<ellipse fill="yellow" stroke="black" cx="197.5" cy="-99.87" rx="56.64" ry="26.74"/>
<text text-anchor="middle" x="197.5" y="-103.67" font-family="Helvetica,sans-Serif" font-size="14.00">⋯ Create</text>
<text text-anchor="middle" x="197.5" y="-88.67" font-family="Helvetica,sans-Serif" font-size="14.00">plan.md</text>
</g>
<!-- start&#45;&gt;c3d37fa3&#45;7282&#45;4068&#45;9a89&#45;fb24faab9520 -->
<g id="edge4" class="edge">
<title>start&#45;&gt;c3d37fa3&#45;7282&#45;4068&#45;9a89&#45;fb24faab9520</title>
<path fill="none" stroke="black" d="M89.2,-99.87C92.87,-99.87 110.63,-99.87 130.74,-99.87"/>
<polygon fill="black" stroke="black" points="130.75,-103.37 140.75,-99.87 130.75,-96.37 130.75,-103.37"/>
<text text-anchor="middle" x="114.97" y="-106.67" font-family="Helvetica,sans-Serif" font-size="14.00">Start</text>
</g>
<!-- end -->
<g id="node2" class="node">
<title>end</title>
</g>
<!-- e690e948&#45;d3b7&#45;480e&#45;95b4&#45;d61b3e6bf359 -->
<g id="node4" class="node">
<title>e690e948&#45;d3b7&#45;480e&#45;95b4&#45;d61b3e6bf359</title>
<ellipse fill="white" stroke="black" cx="406.5" cy="-99.87" rx="84.29" ry="26.74"/>
<text text-anchor="middle" x="406.5" y="-103.67" font-family="Helvetica,sans-Serif" font-size="14.00">▶ Modify</text>
<text text-anchor="middle" x="406.5" y="-88.67" font-family="Helvetica,sans-Serif" font-size="14.00">docs/index.md</text>
</g>
<!-- c3d37fa3&#45;7282&#45;4068&#45;9a89&#45;fb24faab9520&#45;&gt;e690e948&#45;d3b7&#45;480e&#45;95b4&#45;d61b3e6bf359 -->
<g id="edge2" class="edge">
<title>c3d37fa3&#45;7282&#45;4068&#45;9a89&#45;fb24faab9520&#45;&gt;e690e948&#45;d3b7&#45;480e&#45;95b4&#45;d61b3e6bf359</title>
<path fill="none" stroke="black" d="M254.24,-99.87C273.57,-99.87 292.9,-99.87 312.23,-99.87"/>
<polygon fill="black" stroke="black" points="312.34,-103.37 322.34,-99.87 312.34,-96.37 312.34,-103.37"/>
</g>
<!-- 45f3d51f&#45;b87c&#45;4508&#45;83b7&#45;f97fa6c27d1d -->
<g id="node5" class="node">
<title>45f3d51f&#45;b87c&#45;4508&#45;83b7&#45;f97fa6c27d1d</title>
<polygon fill="white" stroke="black" points="265,-36 0,-36 0,0 265,0 265,-36"/>
<text text-anchor="middle" x="132.5" y="-14.3" font-family="Helvetica,sans-Serif" font-size="14.00">▶ Run GitHub Actions for `plan.md`</text>
</g>
<!-- c3d37fa3&#45;7282&#45;4068&#45;9a89&#45;fb24faab9520&#45;&gt;45f3d51f&#45;b87c&#45;4508&#45;83b7&#45;f97fa6c27d1d -->
<g id="edge1" class="edge">
<title>c3d37fa3&#45;7282&#45;4068&#45;9a89&#45;fb24faab9520&#45;&gt;45f3d51f&#45;b87c&#45;4508&#45;83b7&#45;f97fa6c27d1d</title>
<path fill="none" stroke="black" stroke-dasharray="5,2" d="M177.64,-74.47C169.77,-64.8 160.72,-53.68 152.8,-43.95"/>
<polygon fill="black" stroke="black" points="155.49,-41.71 146.47,-36.16 150.06,-46.13 155.49,-41.71"/>
</g>
<!-- e690e948&#45;d3b7&#45;480e&#45;95b4&#45;d61b3e6bf359&#45;&gt;end -->
<g id="edge5" class="edge">
<title>e690e948&#45;d3b7&#45;480e&#45;95b4&#45;d61b3e6bf359&#45;&gt;end</title>
<path fill="none" stroke="black" d="M490.74,-99.87C509.36,-99.87 526.72,-99.87 537.45,-99.87"/>
<polygon fill="black" stroke="black" points="537.8,-103.37 547.8,-99.87 537.8,-96.37 537.8,-103.37"/>
<text text-anchor="middle" x="519.32" y="-106.67" font-family="Helvetica,sans-Serif" font-size="14.00">Finish</text>
</g>
<!-- c4557aa8&#45;7d31&#45;479a&#45;b49c&#45;9b4c91a37d9c -->
<g id="node6" class="node">
<title>c4557aa8&#45;7d31&#45;479a&#45;b49c&#45;9b4c91a37d9c</title>
<polygon fill="white" stroke="black" points="593.5,-36 283.5,-36 283.5,0 593.5,0 593.5,-36"/>
<text text-anchor="middle" x="438.5" y="-14.3" font-family="Helvetica,sans-Serif" font-size="14.00">▶ Run GitHub Actions for `docs/index.md`</text>
</g>
<!-- e690e948&#45;d3b7&#45;480e&#45;95b4&#45;d61b3e6bf359&#45;&gt;c4557aa8&#45;7d31&#45;479a&#45;b49c&#45;9b4c91a37d9c -->
<g id="edge3" class="edge">
<title>e690e948&#45;d3b7&#45;480e&#45;95b4&#45;d61b3e6bf359&#45;&gt;c4557aa8&#45;7d31&#45;479a&#45;b49c&#45;9b4c91a37d9c</title>
<path fill="none" stroke="black" stroke-dasharray="5,2" d="M416.8,-73.16C420.31,-64.41 424.23,-54.62 427.77,-45.79"/>
<polygon fill="black" stroke="black" points="431.08,-46.92 431.55,-36.34 424.59,-44.32 431.08,-46.92"/>
</g>
</g>
</svg>
